{"title":"Guest Iin London 2017 Hindi Movies HD TS XviD Clean Audio New +S","magnet":"magnet:?xt=urn:btih:a180e4b627e757ab468508924bb68ea07edb9911&dn=Guest+Iin+London+2017+Hindi+Movies+HD+TS+XviD+Clean+Audio+New+%2BS&tr=udp%3A%2F%2Ftracker.leechers-paradise.org%3A6969&tr=udp%3A%2F%2Fzer0day.ch%3A1337&tr=udp%3A%2F%2Fopen.demonii.com%3A1337&tr=udp%3A%2F%2Ftracker.coppersurfer.tk%3A6969&tr=udp%3A%2F%2Fexodus.desync.com%3A6969","uploader":"basicssom","categoryP":"video","categoryS":"movies","size":"749508911","seeders":"2","leechers":"145","description":"----------------------------------------------------------------\r\nGuest Iin London 2017 Hindi Movies HD TS XviD Clean Audio AAC New Source with Sample &#x263B;rDX&#x263B;\r\n\r\nSCREEN SHOTS &amp; POSTER:\r\n   <a href=\"\nhttp://postimage.co.nr/2017/7/free/index.html\" rel=\"nofollow\" target=\"_NEW\">\nhttp://postimage.co.nr/2017/7/free/index.html</a>  <a href=\"\nhttp://postimage.co.nr/2017/7/free/1.html\" rel=\"nofollow\" target=\"_NEW\">\nhttp://postimage.co.nr/2017/7/free/1.html</a>   <a href=\"\nhttp://postimage.co.nr/2017/7/free/2.html\" rel=\"nofollow\" target=\"_NEW\">\nhttp://postimage.co.nr/2017/7/free/2.html</a>   <a href=\"\nhttp://postimage.co.nr/2017/7/free/3.html\" rel=\"nofollow\" target=\"_NEW\">\nhttp://postimage.co.nr/2017/7/free/3.html</a>   <a href=\"\nhttp://postimage.co.nr/2017/7/free/4.html\" rel=\"nofollow\" target=\"_NEW\">\nhttp://postimage.co.nr/2017/7/free/4.html</a>   <a href=\"\nhttp://postimage.co.nr/2017/7/free/5.html\" rel=\"nofollow\" target=\"_NEW\">\nhttp://postimage.co.nr/2017/7/free/5.html</a>   <a href=\"\nhttp://postimage.co.nr/2017/7/free/6.html\" rel=\"nofollow\" target=\"_NEW\">\nhttp://postimage.co.nr/2017/7/free/6.html</a>   <a href=\"\nhttp://postimage.co.nr/2017/7/free/7.html\" rel=\"nofollow\" target=\"_NEW\">\nhttp://postimage.co.nr/2017/7/free/7.html</a>   <a href=\"\nhttp://postimage.co.nr/2017/7/free/8.html\" rel=\"nofollow\" target=\"_NEW\">\nhttp://postimage.co.nr/2017/7/free/8.html</a>   <a href=\"\nhttp://postimage.co.nr/2017/7/free/9.html\" rel=\"nofollow\" target=\"_NEW\">\nhttp://postimage.co.nr/2017/7/free/9.html</a>   <a href=\"\nhttp://postimage.co.nr/2017/7/free/10.html\" rel=\"nofollow\" target=\"_NEW\">\nhttp://postimage.co.nr/2017/7/free/10.html</a>\r\n\r\nFile size                                : 707 MiB\r\nDuration                                 : 2 h 9 min\r\nOverall bit rate                         : 766 kb/s\r\nMovie name                               : Guest Iin London 2017 Hindi Movies HD TS XviD Clean Audio AAC New Source &#x263B;rDX&#x263B;\r\n\r\nVideo\r\nID                                       : 1\r\nFormat                                   : AVC\r\nFormat/Info                              : Advanced Video Codec\r\nFormat profile                           : <a class=\"__cf_email__\" href=\"/cdn-cgi/l/email-protection\" data-cfemail=\"4d05242a250d0179637c\">[email&#xA0;protected]</a><script data-cfhash=\"f9e31\" type=\"text/javascript\">/* <![CDATA[ */!function(t,e,r,n,c,a,p){try{t=document.currentScript||function(){for(t=document.getElementsByTagName('script'),e=t.length;e--;)if(t[e].getAttribute('data-cfhash'))return t[e]}();if(t&&(c=t.previousSibling)){p=t.parentNode;if(a=c.getAttribute('data-cfemail')){for(e='',r='0x'+a.substr(0,2)|0,n=2;a.length-n;n+=2)e+='%'+('0'+('0x'+a.substr(n,2)^r).toString(16)).slice(-2);p.replaceChild(document.createTextNode(decodeURIComponent(e)),c)}p.removeChild(t)}}catch(u){}}()/* ]]> */</script>\r\nFormat settings, CABAC                   : Yes\r\nFormat settings, ReFrames                : 16 frames\r\nCodec ID                                 : V_MPEG4/ISO/AVC\r\nDuration                                 : 2 h 9 min\r\nBit rate                                 : 700 kb/s\r\nWidth                                    : 640 pixels\r\nHeight                                   : 272 pixels\r\nDisplay aspect ratio                     : 2.35:1\r\nFrame rate mode                          : Constant\r\nFrame rate                               : 25.000 FPS\r\nColor space                              : YUV\r\nChroma subsampling                       : 4:2:0\r\nBit depth                                : 8 bits\r\nScan type                                : Progressive\r\nBits/(Pixel*Frame)                       : 0.161\r\nStream size                              : 634 MiB (90%)\r\nTitle                                    : &#x263B;rDX&#x263B;\r\nWriting library                          : XviD\r\n\r\nAudio\r\nID                                       : 2\r\nFormat                                   : MPEG Audio\r\nFormat version                           : Version 2\r\nFormat profile                           : Layer 3\r\nMode                                     : Joint stereo\r\nMode extension                           : MS Stereo\r\nCodec ID                                 : A_MPEG/L3\r\nCodec ID/Hint                            : MP3\r\nDuration                                 : 2 h 9 min\r\nBit rate mode                            : Constant\r\nBit rate                                 : 64.0 kb/s\r\nChannel(s)                               : 2 channels\r\nSampling rate                            : 24.0 kHz\r\nCompression mode                         : Lossy\r\nStream size                              : 59.1 MiB (8%)\r\nTitle                                    : &#x263B;rDX&#x263B;\r\nWriting library                          : LAME3.99r\r\nEncoding settings                        : -m j -V 4 -q 2 -lowpass 11 -b 64\r\nLanguage                                 : Hindi\r\nDefault                                  : Yes","last_updated":"2017-07-08T12:01:37.179Z","parsed":{"xt":"urn:btih:a180e4b627e757ab468508924bb68ea07edb9911","dn":"Guest Iin London 2017 Hindi Movies HD TS XviD Clean Audio New  S","tr":["udp://exodus.desync.com:6969","udp://open.demonii.com:1337","udp://tracker.coppersurfer.tk:6969","udp://tracker.leechers-paradise.org:6969","udp://zer0day.ch:1337"],"infoHash":"a180e4b627e757ab468508924bb68ea07edb9911","infoHashBuffer":{"type":"Buffer","data":[161,128,228,182,39,231,87,171,70,133,8,146,75,182,142,160,126,219,153,17]},"name":"Guest Iin London 2017 Hindi Movies HD TS XviD Clean Audio New  S","announce":["udp://exodus.desync.com:6969","udp://open.demonii.com:1337","udp://tracker.coppersurfer.tk:6969","udp://tracker.leechers-paradise.org:6969","udp://zer0day.ch:1337"],"urlList":[]}}